<svg id="visual" viewBox="0 0 960 300" width="960" height="300" xmlns="http://www.w3.org/2000/svg" xmlns:xlink="http://www.w3.org/1999/xlink" version="1.1"><rect x="0" y="0" width="960" height="300" fill="#2b2b2b"></rect><path d="M0 158L9.3 165.8C18.7 173.7 37.3 189.3 56.2 191.2C75 193 94 181 112.8 173C131.7 165 150.3 161 169.2 167.2C188 173.3 207 189.7 225.8 200C244.7 210.3 263.3 214.7 282.2 217.2C301 219.7 320 220.3 338.8 219.7C357.7 219 376.3 217 395.2 214.2C414 211.3 433 207.7 451.8 211C470.7 214.3 489.3 224.7 508.2 221.7C527 218.7 546 202.3 564.8 194C583.7 185.7 602.3 185.3 621.2 195.3C640 205.3 659 225.7 677.8 219.8C696.7 214 715.3 182 734.2 181.5C753 181 772 212 790.8 214.3C809.7 216.7 828.3 190.3 847.2 180C866 169.7 885 175.3 903.8 174.7C922.7 174 941.3 167 950.7 163.5L960 160L960 301L950.7 301C941.3 301 922.7 301 903.8 301C885 301 866 301 847.2 301C828.3 301 809.7 301 790.8 301C772 301 753 301 734.2 301C715.3 301 696.7 301 677.8 301C659 301 640 301 621.2 301C602.3 301 583.7 301 564.8 301C546 301 527 301 508.2 301C489.3 301 470.7 301 451.8 301C433 301 414 301 395.2 301C376.3 301 357.7 301 338.8 301C320 301 301 301 282.2 301C263.3 301 244.7 301 225.8 301C207 301 188 301 169.2 301C150.3 301 131.7 301 112.8 301C94 301 75 301 56.2 301C37.3 301 18.7 301 9.3 301L0 301Z" fill="#0066FF" stroke-linecap="round" stroke-linejoin="miter"></path></svg>